HIERARCHY
ROOT Hips
{
  OFFSET 0 0 0
  CHANNELS 6 Xposition Yposition Zposition Zrotation Xrotation Yrotation
  JOINT Spine
  {
    OFFSET 0 10 0
    CHANNELS 3 Zrotation Xrotation Yrotation
    JOINT Neck
    {
      OFFSET 0 30 0
      CHANNELS 3 Zrotation Xrotation Yrotation
      JOINT Head
      {
        OFFSET 0 8 0
        CHANNELS 3 Zrotation Xrotation Yrotation
        End Site
        {
          OFFSET 0 10 0
        }
      }
    }
    JOINT LeftArm
    {
      OFFSET 15 30 0
      CHANNELS 3 Zrotation Xrotation Yrotation
      JOINT LeftForeArm
      {
        OFFSET 25 0 0
        CHANNELS 3 Zrotation Xrotation Yrotation
        JOINT LeftHand
        {
          OFFSET 25 0 0
          CHANNELS 3 Zrotation Xrotation Yrotation
          End Site
          {
            OFFSET 10 0 0
          }
        }
      }
    }
    JOINT RightArm
    {
      OFFSET -15 30 0
      CHANNELS 3 Zrotation Xrotation Yrotation
      JOINT RightForeArm
      {
        OFFSET -25 0 0
        CHANNELS 3 Zrotation Xrotation Yrotation
        JOINT RightHand
        {
          OFFSET -25 0 0
          CHANNELS 3 Zrotation Xrotation Yrotation
          End Site
          {
            OFFSET -10 0 0
          }
        }
      }
    }
  }
  JOINT LeftUpLeg
  {
    OFFSET 10 -10 0
    CHANNELS 3 Zrotation Xrotation Yrotation
    JOINT LeftLeg
    {
      OFFSET 0 -35 0
      CHANNELS 3 Zrotation Xrotation Yrotation
      JOINT LeftToe
      {
        OFFSET 0 -40 0
        CHANNELS 3 Zrotation Xrotation Yrotation
        JOINT LeftToeEnd
        {
          OFFSET 0 0 0
          CHANNELS 3 Zrotation Xrotation Yrotation
          End Site
          {
            OFFSET 0 0 15
          }
        }
      }
    }
  }
  JOINT RightUpLeg
  {
    OFFSET -10 -10 0
    CHANNELS 3 Zrotation Xrotation Yrotation
    JOINT RightLeg
    {
      OFFSET 0 -35 0
      CHANNELS 3 Zrotation Xrotation Yrotation
      JOINT RightToe
      {
        OFFSET 0 -40 0
        CHANNELS 3 Zrotation Xrotation Yrotation
        JOINT RightToeEnd
        {
          OFFSET 0 0 0
          CHANNELS 3 Zrotation Xrotation Yrotation
          End Site
          {
            OFFSET 0 0 15
          }
        }
      }
    }
  }
}
MOTION
Frames:	12
Frame Time:	0.0333333
52.8071 99.0965 51.848 29.1616 -9.7062 -107.164 3.25251 -28.2165 10.256 -3.26145 6.81883 18.2103 6.93287 11.8505 28.8984 -90.8118 40.0779 7.37354 18.5799 -6.61015 -28.1528 -2.09987 -7.04721 0.446111 89.1486 34.9844 -17.3937 -21.0903 -10.4075 42.6492 1.01214 -7.17401 3.30296 -6.50513 -55.2728 -24.8254 -3.28605 32.551 2.24167 5.2218 26.453 -3.29902 3.18055e-015 -4.77083e-015 3.18055e-015 1.71181 -37.956 -5.05627 1.83368 30.6963 -0.937367 10.3937 14.3219 -34.661 -6.36111e-015 3.18055e-015 -0 
51.7462 104.729 52.4538 31.2756 -4.20287 -95.9316 3.36194 -31.6755 6.2347 -6.34936 6.15862 12.0205 4.40965 4.69902 19.3956 -91.8266 42.7086 7.90296 18.7571 -6.91474 -28.8284 -2.03476 -7.79828 0.450429 90.3249 31.4234 -22.3772 -21.3402 -10.7909 43.5987 1.0675 -9.25218 3.3034 -6.48894 -54.5545 -22.2571 -3.05673 31.8303 2.63991 3.34312 14.2903 -2.67075 -1.59028e-015 -3.18055e-015 3.18055e-015 2.4333 -36.6569 5.90588 1.43674 24.9663 -0.486694 10.1756 18.1483 -27.9792 -1.59028e-015 -8.74653e-015 3.18055e-015 
51.1033 109.09 53.4263 29.9819 1.08031 -87.3026 3.98988 -31.6946 3.91262 -7.50603 7.62759 12.2992 4.1295 3.63232 20.45 -91.3676 44.3564 5.63895 18.4561 -6.63644 -28.0249 -1.94247 -6.30342 0.610968 90.1234 27.1592 -24.8762 -21.1027 -10.5857 43.2119 0.739439 -7.42962 3.20178 -3.3984 -51.7601 -13.9772 -3.27041 33.4207 2.73945 2.73543 10.6172 0.628701 7.95139e-016 -3.27995e-015 2.38542e-015 3.98805 -34.5873 12.3265 1.067 23.5513 -0.529612 7.08254 13.7845 -23.4984 -1.19271e-015 1.2921e-015 -0 
50.9197 112.478 54.3218 27.8697 5.69664 -77.6473 3.52823 -30.9131 0.332654 -8.02385 7.58366 11.765 4.31684 3.64707 20.9439 -90.1908 44.8471 2.70313 18.1974 -6.2918 -27.1422 -1.99318 -4.97767 0.66682 89.5162 24.3547 -26.2015 -20.5722 -10.099 42.1681 0.705966 -6.6187 3.25551 -3.38636 -49.0198 -13.6615 -3.60377 35.4869 2.84527 2.29602 8.68816 3.87774 6.95746e-016 2.50966e-015 -0 2.2791 -35.4271 7.79695 0.580784 25.4922 -0.370837 4.58033 17.6427 -11.1556 7.95139e-016 -2.28602e-015 -0 
50.9852 114.85 54.9059 26.3062 9.72174 -69.4908 3.19149 -30.717 -1.00707 -9.42249 7.14461 11.0909 5.92605 3.89352 19.7641 -88.7594 44.6634 0.622713 18.2256 -6.21514 -26.9968 -2.03737 -5.41568 0.591498 89.1731 21.9747 -26.8824 -19.8631 -9.46192 40.7816 0.78802 -5.62513 3.29959 -1.90979 -47.7472 -13.131 -3.59439 36.6489 2.76059 2.23716 10.09 3.17144 1.59028e-015 9.93923e-017 -3.18055e-015 1.59943 -35.9714 9.29348 0.987332 26.4683 -0.8477 5.01409 13.3825 -15.5886 -1.21382e-031 -4.37326e-015 -1.59028e-015 
50.918 116.022 55.5063 24.8716 13.3698 -62.8857 3.32132 -31.1659 -1.22066 -9.31007 7.43045 11.1041 5.92817 3.74242 19.8267 -87.9261 43.4649 0.194266 18.3862 -6.27667 -27.2429 -2.08641 -5.82809 0.461584 89.2693 23.1582 -28.0741 -19.5244 -9.1065 40.0083 0.668753 -6.20516 3.33694 0.880723 -46.0495 -11.3006 -3.52528 35.9858 2.4981 1.90645 11.3346 6.01876 -1.59028e-015 3.57812e-015 -0 1.02895 -37.359 8.37255 1.18569 26.8009 -0.974909 5.71442 15.6095 -16.6763 1.59028e-015 -2.38542e-015 -0 
50.8051 115.974 56.1518 23.7069 15.4211 -57.0791 2.24808 -31.3915 -1.18442 -9.62655 7.2193 10.2712 5.66009 3.51852 18.1184 -86.3636 42.6413 0.410913 18.5661 -6.42255 -27.7422 -2.02583 -6.02879 0.441194 89.253 24.7488 -28.3515 -19.2342 -8.82229 39.3991 0.669889 -5.62221 3.33421 1.65462 -43.6511 -10.1598 -3.33033 34.5064 2.16818 1.39116 11.567 9.26551 -1.59028e-015 5.56597e-015 3.18055e-015 -0.805541 -37.9729 9.79992 1.34374 26.0973 -1.17138 6.32072 15.1465 -19.556 -3.18055e-015 3.97569e-015 -0 
50.7283 114.748 56.7993 22.09 17.8661 -51.2325 2.16687 -31.9769 -0.287308 -11.0793 7.30723 10.5599 7.64615 4.5939 17.5347 -85.1417 42.2262 1.27378 18.4392 -6.29863 -27.5912 -2.04029 -5.08311 0.475128 88.807 26.3032 -28.58 -19.2382 -8.82325 39.429 0.694501 -5.33629 3.29102 3.20779 -42.0258 -8.1723 -3.01907 33.2116 1.85994 1.16281 12.1434 9.15396 3.18055e-015 3.18055e-015 -0 -1.16966 -38.157 13.5911 1.39901 24.9983 -1.43008 5.9752 13.7193 -20.0712 6.36111e-015 -3.18055e-015 -6.36111e-015 
50.7953 112.651 57.2557 19.9895 19.8256 -44.9185 1.36563 -31.3732 -0.508132 -9.95336 7.29208 9.16883 6.57514 3.56206 15.1765 -82.788 41.1754 1.4308 18.2452 -6.10165 -27.248 -2.03367 -4.45739 0.482863 87.5592 27.9643 -27.3272 -19.5138 -9.05137 39.8753 0.634392 -6.09298 3.295 4.49531 -40.9607 -5.539 -2.93326 32.9053 1.72011 0.878223 10.9583 10.4397 -4.77083e-015 4.77083e-015 -0 -1.40875 -38.042 17.4827 1.22172 23.5444 -1.38512 5.63832 15.9294 -17.1769 3.18055e-015 -3.18055e-015 -6.36111e-015 
50.7818 109.174 58.1859 17.4557 22.095 -38.4106 1.53907 -32.4146 -0.941038 -9.09961 9.00216 7.48196 3.65857 0.466383 12.3102 -82.5216 40.2241 4.08589 18.0158 -5.87336 -26.9186 -2.13106 -4.96607 0.397544 85.8021 29.7959 -26.4502 -19.6102 -9.14852 40.0822 0.60296 -6.2788 3.29522 5.00771 -39.6077 -4.73796 -2.73305 31.4016 1.46955 0.470382 10.9332 12.1893 3.18055e-015 6.36111e-015 -0 -1.07249 -37.3746 19.7492 0.95976 22.3142 -1.39755 4.44561 16.0263 -13.0443 1.59028e-015 -3.18055e-015 -3.18055e-015 
50.9845 104.735 58.9207 14.3441 24.1094 -30.9528 1.28257 -32.8179 -2.01457 -9.1452 8.73802 6.67223 4.85104 1.28136 11.0205 -81.8805 38.8061 6.16723 17.7905 -5.69884 -26.6043 -2.10193 -3.60174 0.431882 83.5755 30.5033 -24.3906 -19.7043 -9.25411 40.2102 0.573033 -5.99187 3.34882 4.94444 -39.1826 -5.01693 -2.5719 30.5967 1.31466 0.366409 11.7165 11.4815 -1.59028e-015 -3.18055e-015 -0 -0.817779 -36.6916 19.3079 0.671568 21.6097 -1.3914 3.18372 15.4204 -8.44995 3.18055e-015 6.36111e-015 -3.18055e-015 
51.1039 99.1147 59.6269 11.7148 25.7155 -23.8322 0.128891 -33.7253 -2.78346 -10.0664 8.50627 5.58712 7.38702 1.74675 8.39864 -80.9766 39.2045 8.06687 17.2783 -5.30671 -25.6958 -2.15427 -3.26394 0.455887 82.2637 31.1847 -23.0402 -19.8679 -9.43491 40.5667 0.571103 -6.21603 3.38185 4.10815 -39.2958 -4.86049 -2.45644 30.4584 1.25479 0.550212 12.3737 9.44843 -1.59028e-015 -3.18055e-015 -9.54166e-015 -0.618801 -36.7229 18.1447 0.56505 22.4121 -1.42103 2.34898 15.7846 -5.02865 7.95139e-016 0 -0 
